<svg width="24" height="24" viewBox="0 0 24 24" fill="none" xmlns="http://www.w3.org/2000/svg">
<g clip-path="url(#clip0_6608:1718)">
<path fill-rule="evenodd" clip-rule="evenodd" d="M2.75 2H21.25C21.6642 2 22 2.33579 22 2.75V21.25C22 21.6642 21.6642 22 21.25 22H2.75C2.33579 22 2 21.6642 2 21.25V2.75C2 2.33579 2.33579 2 2.75 2ZM13.1179 12.6403V11H6V12.6403H8.54121V19.9439H10.5642V12.6403H13.1179ZM13.9244 19.751C14.2507 19.9173 14.6365 20.0421 15.0819 20.1252C15.5273 20.2084 15.9968 20.25 16.4903 20.25C16.9713 20.25 17.4282 20.2043 17.8611 20.1128C18.294 20.0213 18.6735 19.8706 18.9998 19.6606C19.326 19.4506 19.5842 19.1761 19.7745 18.8372C19.9648 18.4983 20.06 18.0794 20.06 17.5804C20.06 17.2186 20.0056 16.9016 19.8969 16.6292C19.7881 16.3568 19.6313 16.1146 19.4264 15.9026C19.2214 15.6905 18.9757 15.5003 18.6892 15.3318C18.4027 15.1634 18.0796 15.0044 17.7199 14.8547C17.4565 14.7466 17.2202 14.6416 17.011 14.5397C16.8019 14.4378 16.6242 14.3339 16.4778 14.2278C16.3314 14.1218 16.2185 14.0095 16.139 13.891C16.0595 13.7725 16.0198 13.6384 16.0198 13.4887C16.0198 13.3515 16.0554 13.2278 16.1265 13.1176C16.1976 13.0074 16.2979 12.9128 16.4276 12.8338C16.5572 12.7548 16.7162 12.6934 16.9044 12.6498C17.0926 12.6061 17.3017 12.5843 17.5317 12.5843C17.699 12.5843 17.8757 12.5968 18.0619 12.6217C18.248 12.6467 18.4351 12.6851 18.6233 12.7371C18.8116 12.7891 18.9945 12.8546 19.1723 12.9336C19.35 13.0126 19.5142 13.1041 19.6648 13.208V11.3431C19.3594 11.2266 19.0259 11.1403 18.6641 11.0842C18.3023 11.0281 17.8872 11 17.4188 11C16.942 11 16.4903 11.0509 16.0637 11.1528C15.6371 11.2547 15.2617 11.4137 14.9376 11.63C14.6135 11.8462 14.3573 12.1217 14.1691 12.4564C13.9809 12.7912 13.8868 13.1914 13.8868 13.6571C13.8868 14.2517 14.0593 14.759 14.4043 15.179C14.7494 15.599 15.2732 15.9545 15.9759 16.2456C16.2519 16.3579 16.5091 16.4681 16.7475 16.5762C16.9859 16.6843 17.1919 16.7966 17.3655 16.913C17.5391 17.0294 17.676 17.1563 17.7764 17.2935C17.8768 17.4307 17.927 17.5866 17.927 17.7613C17.927 17.8902 17.8956 18.0097 17.8329 18.1199C17.7701 18.2301 17.675 18.3258 17.5474 18.4069C17.4199 18.4879 17.2609 18.5514 17.0706 18.5971C16.8803 18.6428 16.6576 18.6657 16.4025 18.6657C15.9675 18.6657 15.5367 18.5898 15.1101 18.438C14.6835 18.2863 14.2883 18.0586 13.9244 17.7551V19.751Z" fill="white"/>
</g>
<defs>
<clipPath id="clip0_6608:1718">
<rect width="20" height="20" fill="white" transform="translate(2 2)"/>
</clipPath>
</defs>
</svg>
